<?xml version="1.0" encoding="UTF-8"?>
<svg xmlns="http://www.w3.org/2000/svg" width="1200" height="1200" viewBox="0 0 1200 1200" role="img" aria-label="SubSync speech bubble waveform icon">
  <defs>
    <radialGradient id="bgGlow" cx="50%" cy="50%" r="67%">
      <stop offset="0%" stop-color="#4b5790"/>
      <stop offset="55%" stop-color="#263878"/>
      <stop offset="100%" stop-color="#22275f"/>
    </radialGradient>
    <linearGradient id="bgDepth" x1="0" y1="0" x2="1" y2="1">
      <stop offset="0%" stop-color="#273676"/>
      <stop offset="45%" stop-color="#273a7d" stop-opacity="0"/>
      <stop offset="100%" stop-color="#1d2357"/>
    </linearGradient>
    <filter id="softShadow" x="-12%" y="-12%" width="124%" height="124%" color-interpolation-filters="sRGB">
      <feDropShadow dx="0" dy="16" stdDeviation="13" flood-color="#10194a" flood-opacity="0.45"/>
      <feDropShadow dx="0" dy="0" stdDeviation="12" flood-color="#ffffff" flood-opacity="0.08"/>
    </filter>
  </defs>
  <rect width="1200" height="1200" fill="url(#bgGlow)"/>
  <rect width="1200" height="1200" fill="url(#bgDepth)" opacity="0.75"/>
  <path fill="#fff7ed" fill-rule="evenodd" filter="url(#softShadow)" d="
      M 978 299 L 951 272 L 906 236 L 867 211 L 821 188 L 761 166 L 727 157 L 679 148 L 626 143 L 571 143 L 502 151 L 452 162 L 411 175 L 365 194 L 329 213 L 292 237 L 250 271 L 220 301 L 196 330 L 173 364 L 151 405 L 137 439 L 126 474 L 119 507 L 114 552 L 114 593 L 119 639 L 128 679 L 138 709 L 147 731 L 176 785 L 198 816 L 229 850 L 233 857 L 233 865 L 229 883 L 214 935 L 185 996 L 184 1010 L 189 1022 L 196 1028 L 207 1032 L 242 1029 L 269 1023 L 320 1004 L 360 984 L 392 965 L 408 961 L 424 963 L 456 974 L 484 981 L 542 991 L 572 994 L 647 993 L 723 983 L 771 971 L 806 959 L 839 945 L 875 926 L 909 904 L 951 870 L 974 847 L 1005 810 L 1027 778 L 1045 745 L 1060 710 L 1071 677 L 1081 631 L 1085 587 L 1084 545 L 1080 508 L 1072 471 L 1059 431 L 1049 407 L 1027 365 L 1002 328 Z
      M 942 336 L 979 384 L 996 413 L 1012 448 L 1025 488 L 1031 515 L 1035 544 L 1036 586 L 1034 612 L 1028 647 L 1021 673 L 1007 710 L 993 738 L 971 773 L 949 801 L 920 831 L 878 865 L 828 895 L 779 916 L 719 933 L 647 943 L 586 945 L 514 937 L 477 928 L 426 912 L 402 911 L 378 917 L 335 942 L 294 962 L 254 976 L 250 975 L 268 930 L 276 905 L 284 868 L 284 843 L 281 833 L 276 825 L 247 795 L 227 769 L 205 735 L 189 703 L 176 666 L 168 632 L 165 611 L 163 565 L 165 537 L 171 501 L 179 471 L 194 432 L 211 399 L 231 368 L 250 344 L 278 315 L 309 288 L 340 266 L 383 242 L 430 222 L 477 208 L 531 198 L 564 194 L 614 193 L 663 197 L 706 204 L 745 214 L 797 233 L 839 254 L 874 276 L 913 307 Z
      M 744 459 L 734 462 L 725 468 L 716 479 L 712 491 L 711 655 L 715 672 L 726 686 L 738 692 L 755 694 L 765 692 L 775 687 L 785 676 L 790 662 L 792 630 L 796 621 L 804 613 L 817 608 L 901 608 L 908 606 L 916 601 L 924 590 L 926 584 L 926 569 L 921 558 L 913 550 L 901 545 L 818 545 L 807 542 L 796 532 L 791 520 L 791 494 L 789 485 L 784 475 L 780 470 L 768 462 L 758 459 Z
      M 444 458 L 428 463 L 414 476 L 408 491 L 407 517 L 405 524 L 400 532 L 391 540 L 377 545 L 317 544 L 298 545 L 292 547 L 282 553 L 277 559 L 272 572 L 272 582 L 278 596 L 285 603 L 296 608 L 384 609 L 393 613 L 401 620 L 407 631 L 408 661 L 415 679 L 423 687 L 432 692 L 439 694 L 456 694 L 469 689 L 480 679 L 487 662 L 488 493 L 483 478 L 471 465 L 461 460 Z
      M 595 336 L 579 340 L 567 347 L 556 359 L 549 378 L 548 753 L 550 774 L 557 790 L 567 800 L 581 808 L 594 811 L 603 811 L 617 808 L 630 801 L 644 785 L 650 764 L 650 384 L 646 366 L 634 349 L 620 340 L 604 336 Z
  "/>
</svg>
